<mxfile host="app.diagrams.net" modified="2023-05-28T05:33:06.114Z" agent="Mozilla/5.0 (Windows NT 10.0; Win64; x64) AppleWebKit/537.36 (KHTML, like Gecko) Chrome/113.0.0.0 Safari/537.36" version="21.3.4" etag="Jhf5qzVMv4NMlxl-hY1I" type="github">
  <diagram name="第 1 页" id="YzqsNlP2_p8648E1BHMD">
    <mxGraphModel>
      <root>
        <mxCell id="0" />
        <mxCell id="1" parent="0" />
      </root>
    </mxGraphModel>
  </diagram>
</mxfile>
